<svg xmlns="http://www.w3.org/2000/svg" width="62.642" height="50" viewBox="0 0 62.642 50"><defs><style>.a{fill:#303030;}</style></defs><g transform="translate(0 -51.663)"><g transform="translate(0 51.663)"><path class="a" d="M62.637,99.094l-.042-.963a.891.891,0,1,0-1.781.078l.042.97c0,.006,0,.012,0,.018a.641.641,0,0,1-.638.683H55v-8.5a.891.891,0,1,0-1.783,0v8.5H42.213l-1.33-11.9.376-1.324,1.4,1.02a1.572,1.572,0,0,0,2.163-.291l4.695-5.9L56.349,83.9a6.127,6.127,0,0,1,4.075,5.389l.147,3.359a.891.891,0,0,0,1.781-.078L62.2,89.2c0-.006,0-.012,0-.018a7.907,7.907,0,0,0-5.261-6.965l-9.979-3.527a1.422,1.422,0,0,0-.2-.054l-.08-.013-.021,0a1.455,1.455,0,0,0-1.206.413l-.23.23-1.962-.985v-1.72a10.168,10.168,0,0,0,1.658-1.438l.018-.019a10.057,10.057,0,0,0,2.548-4.845c.008-.043.016-.085.023-.128s.016-.1.023-.146c.011-.076.021-.151.03-.227,0-.022.006-.044.008-.065.009-.085.017-.17.022-.254h.37a2.086,2.086,0,0,0,2.084-2.084V65.02a1.487,1.487,0,0,0-.3-.852V60.136a8.468,8.468,0,0,0-8.473-8.473H35.15A8.484,8.484,0,0,0,27.4,56.711l-4.428-4.148a2.761,2.761,0,0,0-3.774.005l-5.6,5.276v-.617a1.324,1.324,0,0,0-1.323-1.322h0l-4.2.006a1.325,1.325,0,0,0-1.322,1.326l.012,7.046-5.9,5.557A2.756,2.756,0,0,0,2.674,74.6h.084a2.737,2.737,0,0,0,1.888-.75l2-1.882.009,6.249a.891.891,0,0,0,.891.89h0a.891.891,0,0,0,.89-.893l-.011-7.923L21.1,58.357l5.581,5.228v.583a1.487,1.487,0,0,0-.3.852v2.336a2.086,2.086,0,0,0,2.084,2.084h.369c.006.089.014.177.023.267,0,.023.006.046.008.069q.013.114.03.229c.006.043.013.086.02.128s.02.111.03.166q.029.156.066.312c.006.024.011.049.017.073.017.072.036.144.056.216l.014.051a9.283,9.283,0,0,0,.657,1.686l.012.024q.165.324.353.64l.055.092q.05.082.1.163l.087.134c.029.045.058.09.088.134q.086.127.176.251l.072.1q.068.093.139.184l.07.091q.1.123.2.243l.016.019q.108.129.22.254l.072.08q.08.088.162.174l.081.085q.1.1.206.206l.12.114.129.121.141.126.086.075a9.744,9.744,0,0,0,.822.635v1.7l-1.961.985-.23-.23a1.453,1.453,0,0,0-1.506-.342l-3.363,1.189-.009-6.346A1.485,1.485,0,0,0,24.6,72.056h0l-6.972.01a1.484,1.484,0,0,0-1.482,1.486l.015,10.916-.069.082c-.038.044-.076.089-.113.134-.023.029-.045.058-.068.087-.036.046-.072.091-.107.137-.022.03-.044.06-.066.09-.034.046-.069.093-.1.14-.021.03-.042.062-.063.093-.032.048-.065.095-.1.143-.021.032-.04.064-.06.1-.03.048-.061.1-.09.145-.02.033-.038.067-.058.1-.028.049-.057.1-.084.147-.019.034-.036.069-.054.1-.026.05-.053.1-.079.15-.018.035-.034.071-.051.106s-.049.1-.073.151-.033.074-.049.112-.045.1-.066.151-.03.076-.045.114-.041.1-.06.153-.028.079-.042.118-.037.1-.054.153-.026.082-.039.122-.033.1-.048.153-.023.084-.035.125-.029.1-.042.154-.02.086-.031.13-.025.1-.036.153-.018.089-.027.134-.021.1-.03.153-.015.092-.022.138-.017.1-.024.152-.012.094-.017.141-.013.1-.018.151-.008.1-.012.145-.009.092-.012.138l-5.734.008a.036.036,0,0,1-.036-.036l-.007-5.377a.891.891,0,0,0-.891-.89h0a.891.891,0,0,0-.89.893l.007,5.377a1.821,1.821,0,0,0,1.819,1.816h0l5.653-.008-.357,8.151a2.424,2.424,0,0,0,2.418,2.569H60.218a2.425,2.425,0,0,0,2.419-2.569Zm-50.82-41.4,0,1.832L8.545,62.607l-.008-4.913Zm14.975,1.058c-.009.054-.018.107-.026.161-.012.081-.022.162-.031.243-.006.055-.013.11-.019.165-.008.088-.014.176-.02.264,0,.048-.007.1-.01.144-.007.137-.01.274-.01.411v1.006L21.7,56.483a.891.891,0,0,0-1.221,0L3.424,72.555a.974.974,0,1,1-1.335-1.417L20.423,53.866a.975.975,0,0,1,1.333,0L26.816,58.6C26.807,58.651,26.8,58.7,26.793,58.748Zm21.475,8.608a.3.3,0,0,1-.3.3H47.61V65.235a2.659,2.659,0,0,0,.657.144Zm-19.811.3a.3.3,0,0,1-.3-.3V65.377a2.659,2.659,0,0,0,.657-.145v2.424Zm1.792-6.819-.294-.086c-.027-.008-.054-.014-.082-.019a.89.89,0,0,0-1.061.874v1.1a.9.9,0,0,1-.353.713V60.136c0-.127,0-.254.012-.381,0-.04.006-.081.009-.121.006-.086.014-.172.023-.257.006-.049.012-.1.019-.146q.015-.113.035-.226c.009-.053.018-.106.028-.158.013-.069.029-.138.045-.206a6.7,6.7,0,0,1,6.52-5.2h6.122a6.687,6.687,0,0,1,6.691,6.691v3.288a.9.9,0,0,1-.089-.078.89.89,0,0,1-.264-.635v-1.1a.891.891,0,0,0-.357-.713h0a.887.887,0,0,0-.108-.068l-.033-.017a.914.914,0,0,0-.092-.039l-.029-.011a.877.877,0,0,0-.122-.03l-.027,0a.913.913,0,0,0-.1-.008l-.02,0H46.7c-.026,0-.053,0-.079.006l-.037,0a.888.888,0,0,0-.115.025l-.185.054-.816.239a25.727,25.727,0,0,1-14.511,0Zm.38,8.746,0-.037q-.012-.115-.02-.229c0-.01,0-.021,0-.031,0-.086-.008-.172-.008-.257V62.8a27.5,27.5,0,0,0,15.233,0v6.216c0,.085,0,.17-.007.256,0,.012,0,.023,0,.035q-.007.111-.019.223l-.005.045c-.01.081-.021.163-.034.245v.008a8.635,8.635,0,0,1-3.352,5.16l-.036.026c-.053.038-.107.075-.161.112l-.088.06-.048.031c-.054.035-.108.07-.163.1l-.008.006a5.557,5.557,0,0,1-1.532.658L40.278,76a6.48,6.48,0,0,1-4.246-.009,5.548,5.548,0,0,1-1.517-.655l0,0-.064-.041c-.056-.035-.112-.07-.167-.107l-.045-.031A8.544,8.544,0,0,1,30.628,69.584ZM24.3,73.839l.009,6.674L19.48,82.221q-.14.05-.277.1l-.087.036-.069.029-.116.048c-.047.021-.093.043-.14.065l-.126.058-.128.065c-.044.022-.089.044-.132.067l-.114.063c-.047.026-.094.051-.141.078l-.106.064-.1.06-.013-9.111ZM34.21,99.88H23.2v-8.5a.891.891,0,1,0-1.783,0v8.5H16.2a.641.641,0,0,1-.638-.683c0-.006,0-.012,0-.018L16,89.291a6.135,6.135,0,0,1,1.655-3.814l.014-.015.03-.028a6.158,6.158,0,0,1,2.023-1.4l.048-.02c.1-.042.2-.082.305-.118l6.836-2.416,4.7,5.9a1.572,1.572,0,0,0,2.163.291l1.4-1.02.376,1.324ZM32.876,86.118l-4.188-5.261,1.165-.412.54.54c.116.117.236.229.356.34l.1.094q.142.127.287.248l.095.08q.188.153.381.3l.076.055q.16.117.324.229l.12.08q.168.111.34.215l.072.045q.205.123.416.235l.113.059q.163.086.329.166l.124.06c.145.067.29.133.438.194l.025.01c.14.058.282.112.424.163l.133.047q.177.061.356.117l.113.035q.229.068.462.127l.1.023c.083.02.166.041.249.059Zm3-3.978c-.109-.028-.218-.058-.326-.09L35.4,82c-.083-.026-.165-.053-.247-.081l-.163-.058q-.116-.043-.23-.088l-.162-.066c-.079-.033-.158-.069-.236-.1-.048-.022-.1-.043-.145-.066q-.179-.085-.354-.178c-.047-.025-.093-.052-.14-.078-.074-.041-.148-.082-.221-.125-.055-.032-.109-.066-.163-.1s-.128-.08-.191-.121l-.164-.109c-.062-.043-.124-.086-.185-.13s-.1-.075-.155-.113l-.04-.031,1.428-.717a1.4,1.4,0,0,0,.908-1.317v-1a6.583,6.583,0,0,0,.657.2,10.374,10.374,0,0,0,2.571.414,10.4,10.4,0,0,0,2.541-.4l.093-.023a6.587,6.587,0,0,0,.682-.211V78.52a1.4,1.4,0,0,0,.908,1.317l1.428.717-.006,0-.058.045-.094.069-.046.032c-.064.046-.128.092-.193.136l-.008.005c-.061.041-.122.081-.184.121l-.13.082c-.072.045-.145.089-.218.132l-.068.039a9.14,9.14,0,0,1-.847.428l-.023.01a9.224,9.224,0,0,1-1.279.451l-.007,0q-.162.044-.326.082l-.022,0q-.161.037-.324.069c-.14.027-.281.05-.421.071l-.053.007-.1.012-.191.023-.085.009-.122.011c-.08.007-.16.013-.24.018l-.036,0-.124.007c-.135.006-.27.01-.405.01s-.286,0-.429-.01l-.136-.008c-.1-.006-.195-.012-.291-.021l-.156-.016q-.137-.015-.273-.033l-.154-.022c-.1-.015-.192-.032-.288-.05l-.129-.024q-.2-.041-.405-.09Zm3.85,3.394L39.3,87.012H37.119l-.42-1.478,1.512-1.1ZM36,99.88l1.239-11.086H39.18L40.419,99.88Zm4.61-15.925a10.919,10.919,0,0,0,2.539-.9l.055-.028q.452-.229.883-.5l.149-.095q.108-.07.215-.144c.068-.047.136-.095.2-.143s.114-.081.171-.123q.178-.133.35-.274l.122-.1q.133-.111.263-.227l.114-.1c.118-.108.234-.218.348-.332l0,0,.27-.27.27-.27,1.165.412-4.188,5.261L40.592,83.96Z" transform="translate(0 -51.663)"/></g></g></svg>