<svg xmlns="http://www.w3.org/2000/svg" width="54.902" height="50" viewBox="0 0 54.902 50"><defs><style>.a{fill:#303030;}</style></defs><g transform="translate(0 -22.857)"><g transform="translate(14.329 41.359)"><path class="a" d="M136.369,195.4a2.439,2.439,0,0,0-2.741,2.683v3.269a2.748,2.748,0,0,0,5.495,0v-3.269A2.448,2.448,0,0,0,136.369,195.4Zm1.23,5.952c0,.926-.469,1.347-1.23,1.347s-1.218-.422-1.218-1.347v-3.269c0-.926.445-1.347,1.218-1.347s1.23.422,1.23,1.347Z" transform="translate(-133.628 -195.395)"/></g><g transform="translate(21.359 41.359)"><path class="a" d="M202.112,195.4h-2.355a.517.517,0,0,0-.574.469v7.615c0,.316.375.48.762.48s.762-.164.762-.48v-2.718h1.312a2.447,2.447,0,0,0,2.753-2.659v-.07A2.386,2.386,0,0,0,202.112,195.4Zm1.137,2.823c0,.914-.469,1.347-1.23,1.347h-1.312v-2.835h1.312c.762,0,1.23.433,1.23,1.347Z" transform="translate(-199.183 -195.395)"/></g><g transform="translate(28.119 41.359)"><path class="a" d="M267.064,202.623h-3.315v-2.355h1.781a.53.53,0,0,0,.48-.586c0-.316-.176-.609-.48-.609h-1.781v-2.343h3.315c.3,0,.48-.316.48-.68,0-.316-.152-.656-.48-.656h-4.171c-.34,0-.668.164-.668.48v7.6c0,.316.328.48.668.48h4.171c.328,0,.48-.34.48-.656C267.544,202.94,267.368,202.623,267.064,202.623Z" transform="translate(-262.225 -195.395)"/></g><g transform="translate(34.563 41.359)"><path class="a" d="M327.242,195.4c-.387,0-.762.141-.762.469v4.71l-2.261-4.37c-.363-.691-.586-.808-1.136-.808-.387,0-.762.152-.762.48v7.6c0,.316.375.48.762.48s.762-.164.762-.48v-4.71l2.519,4.71a.916.916,0,0,0,.879.48c.375,0,.762-.164.762-.48v-7.615C328,195.536,327.617,195.4,327.242,195.4Z" transform="translate(-322.321 -195.395)"/></g><g transform="translate(11.031 53.652)"><g transform="translate(0 0)"><path class="a" d="M107.791,310.037c-.387,0-.762.141-.762.469v3.058h-2.636v-3.058c0-.328-.387-.469-.762-.469s-.762.141-.762.469v7.615c0,.316.375.48.762.48s.762-.164.762-.48v-3.362h2.636v3.362c0,.316.375.48.762.48s.762-.164.762-.48v-7.615C108.552,310.178,108.166,310.037,107.791,310.037Z" transform="translate(-102.87 -310.037)"/></g></g><g transform="translate(18.26 53.652)"><g transform="translate(0 0)"><path class="a" d="M173.026,310.037a2.439,2.439,0,0,0-2.741,2.683v3.269a2.748,2.748,0,0,0,5.495,0V312.72A2.448,2.448,0,0,0,173.026,310.037Zm1.23,5.952c0,.926-.469,1.347-1.23,1.347s-1.218-.422-1.218-1.347V312.72c0-.926.445-1.347,1.218-1.347s1.23.422,1.23,1.347Z" transform="translate(-170.285 -310.037)"/></g></g><g transform="translate(25.254 53.652)"><g transform="translate(0 0)"><path class="a" d="M240.374,310.037c-.387,0-.762.141-.762.469v5.483a1.29,1.29,0,1,1-2.577,0v-5.483c0-.328-.387-.469-.762-.469s-.762.141-.762.469v5.483c0,1.957,1.23,2.683,2.812,2.683s2.812-.726,2.812-2.683v-5.483C241.135,310.178,240.749,310.037,240.374,310.037Z" transform="translate(-235.512 -310.037)"/></g></g><g transform="translate(32.061 53.593)"><g transform="translate(0 0)"><path class="a" d="M300.729,311.692c0-.562.48-.9,1.324-.9.984,0,1.254.445,1.617.445.422,0,.609-.539.609-.808,0-.773-1.535-.937-2.226-.937-1.347,0-2.847.6-2.847,2.343,0,2.777,3.761,2.238,3.761,4,0,.7-.609,1.019-1.312,1.019-1.195,0-1.511-.9-1.992-.9-.363,0-.668.492-.668.82,0,.68,1.171,1.453,2.706,1.453a2.475,2.475,0,0,0,2.788-2.542C304.49,312.641,300.729,313.144,300.729,311.692Z" transform="translate(-298.995 -309.489)"/></g></g><g transform="translate(38.833 53.652)"><g transform="translate(0 0)"><path class="a" d="M366.984,317.264h-3.315V314.91h1.781a.53.53,0,0,0,.48-.586c0-.316-.176-.609-.48-.609h-1.781v-2.343h3.315c.3,0,.48-.316.48-.68,0-.316-.152-.656-.48-.656h-4.171c-.34,0-.668.164-.668.48v7.6c0,.316.328.48.668.48h4.171c.328,0,.48-.34.48-.656C367.464,317.581,367.288,317.264,366.984,317.264Z" transform="translate(-362.145 -310.036)"/></g></g><g transform="translate(0 22.857)"><g transform="translate(0 0)"><path class="a" d="M52.532,68.118H48.091V42.871l2.5,1.662a2.732,2.732,0,0,0,3.026-4.549l-5.951-3.959a.781.781,0,0,0-.866,1.3l5.951,3.959a1.169,1.169,0,0,1,0,1.947,1.166,1.166,0,0,1-1.295,0L28.219,27.775a1.385,1.385,0,0,0-1.537,0L3.446,43.232a1.166,1.166,0,0,1-1.295,0,1.169,1.169,0,0,1,0-1.947l25.3-16.83L42.758,34.638a.781.781,0,0,0,.866-1.3L28.219,23.09a1.385,1.385,0,0,0-1.537,0l-7.591,5.05v-.677h.226a1.017,1.017,0,0,0,1.015-1.015V24.078a1.017,1.017,0,0,0-1.015-1.015H11.051a1.017,1.017,0,0,0-1.015,1.015v2.371a1.017,1.017,0,0,0,1.015,1.015h.226v5.875L1.286,39.984a2.732,2.732,0,1,0,3.026,4.549l2.5-1.662V56.8a.781.781,0,0,0,1.563,0V41.831L27.451,29.141,46.529,41.831V68.118H8.373V61.658a.781.781,0,0,0-1.563,0v6.461H2.37a2.37,2.37,0,0,0,0,4.739H52.533a2.37,2.37,0,0,0,0-4.739Zm-35-38.939L12.839,32.3V27.464h4.689ZM11.6,24.625H18.77V25.9H11.6ZM52.532,71.295H2.37a.807.807,0,0,1,0-1.614H52.533a.807.807,0,0,1,0,1.614Z" transform="translate(0 -22.858)"/></g></g></g></svg>