<svg xmlns="http://www.w3.org/2000/svg" width="64.707" height="50.5" viewBox="0 0 64.707 50.5"><defs><style>.a{fill:#303030;stroke:#fff;stroke-width:0.5px;}</style></defs><g transform="translate(0.253 -56.345)"><g transform="translate(6.868 96.729)"><g transform="translate(0 0)"><path class="a" d="M98.131,380.591a1.046,1.046,0,0,0-1.368-.563l-9.144,3.814a8.3,8.3,0,0,1-5.8.223L60.377,377a5.741,5.741,0,0,0-4.113.2l-.851.372a1.046,1.046,0,1,0,.839,1.916l.852-.373a3.654,3.654,0,0,1,2.618-.124l21.447,7.067a10.39,10.39,0,0,0,7.256-.279l9.143-3.814A1.046,1.046,0,0,0,98.131,380.591Z" transform="translate(-54.786 -376.708)"/></g></g><g transform="translate(0 56.595)"><g transform="translate(0 0)"><path class="a" d="M63.8,90.694l-.015-.034A4.962,4.962,0,0,0,58.2,87.788a4.161,4.161,0,0,0-2.416-5.08l-.036-.014a4.164,4.164,0,0,0-2.625-.14V75.773a1.046,1.046,0,0,0-2.092,0V90.255l-9.2,3.218a4.7,4.7,0,0,1-3.089,0L27.933,89.695V85.48l10.352,3.54a4.337,4.337,0,0,0,5.325-2.3h1.309a1.046,1.046,0,0,0,1.046-1.046V73.541A1.046,1.046,0,0,0,44.919,72.5H34.04a1.046,1.046,0,0,0-1.046,1.046v4.212l-5.062-1.942V68L39.48,60.357,51.028,68v4.282a1.046,1.046,0,1,0,2.092,0v-2.9l2.872,1.9a1.046,1.046,0,1,0,1.155-1.744l-5.7-3.774v-8.13A1.046,1.046,0,0,0,50.4,56.6H44.124a1.046,1.046,0,0,0-1.046,1.046V60.23l-3.02-2a1.046,1.046,0,0,0-1.155,0L21.814,69.546a1.046,1.046,0,0,0,1.155,1.744l2.872-1.9V75.01l-3.528-1.353c-.136-.054-.284-.108-.467-.171a12.959,12.959,0,0,0-11.317,1.556L.466,81.745a1.046,1.046,0,0,0,1.16,1.741l10.063-6.7a10.856,10.856,0,0,1,9.478-1.318c.151.052.27.1.385.141L40.48,82.865a2.223,2.223,0,0,1,1.24,2.962,2.233,2.233,0,0,1-2.757,1.213L26.956,82.934a4.076,4.076,0,0,0-2.663,7.7l13.761,4.809a6.8,6.8,0,0,0,4.469,0L58.3,89.927A2.864,2.864,0,0,1,61.865,91.5l.006.014a2.853,2.853,0,0,1-1.531,3.744l-8.425,3.514a1.046,1.046,0,1,0,.805,1.931l8.425-3.514a4.945,4.945,0,0,0,2.652-6.49ZM45.17,58.687h4.184v5.7L45.17,61.615ZM41.227,80.912l-6.141-2.356V74.587h8.787v9.335a4.295,4.295,0,0,0-2.646-3.011ZM25.84,88.964l-.857-.3a2,2,0,0,1-1.266-2.381A1.982,1.982,0,0,1,25.84,84.82v4.144Zm30.294-1.611-.537,1.3-2.477.867V84.812h0a2.072,2.072,0,0,1,1.858-.171l.031.012a2.07,2.07,0,0,1,1.124,2.7Z" transform="translate(0 -56.595)"/></g></g></g></svg>