<svg xmlns="http://www.w3.org/2000/svg" width="30" height="19" viewBox="0 0 30 19"><defs><style>.a{fill:#271c2d;}</style></defs><path id="nav-main-icon" class="a" d="M-2342.748-21a1.125,1.125,0,0,1-1.132-1.118,1.126,1.126,0,0,1,1.132-1.118h27.736a1.126,1.126,0,0,1,1.132,1.118A1.125,1.125,0,0,1-2315.011-21Zm0-8.383a1.125,1.125,0,0,1-1.132-1.118,1.125,1.125,0,0,1,1.132-1.117h27.736a1.125,1.125,0,0,1,1.132,1.117,1.125,1.125,0,0,1-1.132,1.118Zm0-8.383a1.125,1.125,0,0,1-1.132-1.118A1.125,1.125,0,0,1-2342.748-40h27.736a1.125,1.125,0,0,1,1.132,1.117,1.125,1.125,0,0,1-1.132,1.118Z" transform="translate(2343.88 40)"/></svg>