<svg xmlns="http://www.w3.org/2000/svg" width="22.132" height="22.133" viewBox="0 0 22.132 22.133"><defs><style>.a{fill:#271c2d;}</style></defs><path id="nav-main-icon-close" class="a" d="M-2262.475-21.484l9.286-9.286-9.017-9.017a1.124,1.124,0,0,1-.01-1.59,1.124,1.124,0,0,1,1.59.01l9.017,9.017,8.745-8.745a1.125,1.125,0,0,1,1.591-.011,1.125,1.125,0,0,1-.011,1.591l-8.745,8.745,9.015,9.015a1.126,1.126,0,0,1,.011,1.591,1.126,1.126,0,0,1-1.591-.011l-9.015-9.015-9.286,9.286a1.125,1.125,0,0,1-1.592.012A1.125,1.125,0,0,1-2262.475-21.484Z" transform="translate(2262.811 41.701)"/></svg>