<svg display="none" xmlns="http://www.w3.org/2000/svg">
  <symbol id="nav-main-icon" viewBox="0 0 30 19">
    <g>
        <path class="a" d="M-2342.748-21a1.125,1.125,0,0,1-1.132-1.118,1.126,1.126,0,0,1,1.132-1.118h27.736a1.126,1.126,0,0,1,1.132,1.118A1.125,1.125,0,0,1-2315.011-21Zm0-8.383a1.125,1.125,0,0,1-1.132-1.118,1.125,1.125,0,0,1,1.132-1.117h27.736a1.125,1.125,0,0,1,1.132,1.117,1.125,1.125,0,0,1-1.132,1.118Zm0-8.383a1.125,1.125,0,0,1-1.132-1.118A1.125,1.125,0,0,1-2342.748-40h27.736a1.125,1.125,0,0,1,1.132,1.117,1.125,1.125,0,0,1-1.132,1.118Z" transform="translate(2343.88 40)"/>
    </g>
  </symbol>
  <symbol id="nav-main-icon-close" viewBox="0 0 22.132 22.133">
    <g>
      <path class="a" d="M-2262.475-21.484l9.286-9.286-9.017-9.017a1.124,1.124,0,0,1-.01-1.59,1.124,1.124,0,0,1,1.59.01l9.017,9.017,8.745-8.745a1.125,1.125,0,0,1,1.591-.011,1.125,1.125,0,0,1-.011,1.591l-8.745,8.745,9.015,9.015a1.126,1.126,0,0,1,.011,1.591,1.126,1.126,0,0,1-1.591-.011l-9.015-9.015-9.286,9.286a1.125,1.125,0,0,1-1.592.012A1.125,1.125,0,0,1-2262.475-21.484Z" transform="translate(2262.811 41.701)"/>
    </g>
  </symbol>
</svg>